<svg version="1.1" id="Layer_1" xmlns="http://www.w3.org/2000/svg" xmlns:xlink="http://www.w3.org/1999/xlink" x="0px" y="0px"
	 width="100%" viewBox="0 0 500 500" enable-background="new 0 0 500 500" xml:space="preserve">
<path fill="#000000" opacity="1.000000" stroke="none" 
	d="
M329.000000,501.000000 
	C219.333359,501.000000 110.166718,501.000000 1.000059,501.000000 
	C1.000039,334.333405 1.000039,167.666794 1.000020,1.000148 
	C167.666565,1.000099 334.333130,1.000099 500.999756,1.000049 
	C500.999847,167.666519 500.999847,334.333038 500.999939,500.999786 
	C443.833344,501.000000 386.666656,501.000000 329.000000,501.000000 
M388.467896,257.698975 
	C395.703278,250.834152 402.956696,243.988205 410.163910,237.093903 
	C412.577087,234.785492 412.164154,224.427597 409.238739,223.170990 
	C398.979004,218.764023 388.527283,214.803955 376.858856,210.161057 
	C379.512482,215.899750 376.409058,222.793808 384.282074,224.464035 
	C384.692017,224.550995 385.070679,225.510635 385.192139,226.118332 
	C386.232971,231.325027 387.299469,236.530411 388.121796,241.773285 
	C388.260284,242.656174 387.157318,243.681595 386.813019,244.703491 
	C386.146698,246.680954 385.163177,248.697281 385.138397,250.707687 
	C385.108521,253.131439 385.938843,255.565781 386.199585,258.791840 
	C385.334076,262.888947 384.468597,266.986023 383.547882,271.344452 
	C388.175385,272.009125 392.021088,272.561493 395.817993,273.106873 
	C395.124786,279.394897 394.491608,285.137970 393.834625,291.097412 
	C395.864746,291.389069 397.463806,291.618774 399.404968,291.897644 
	C400.179474,285.713562 400.912445,279.861176 401.680542,273.728210 
	C403.428497,273.944885 404.689850,274.101227 406.151947,274.282440 
	C405.354614,281.555206 404.581421,288.607849 403.794220,295.788025 
	C406.432800,296.048676 408.536163,296.256439 411.082977,296.507996 
	C412.412994,285.086090 413.710693,273.941620 415.045288,262.480469 
	C407.330200,261.598358 400.077911,260.857880 392.857910,259.879120 
	C391.129517,259.644806 389.508636,258.617188 388.467896,257.698975 
M190.265991,121.210693 
	C195.906250,124.405609 201.506195,127.675690 207.216492,130.740097 
	C208.563522,131.462982 210.470444,132.121796 211.794891,131.725159 
	C215.879425,130.501892 219.806870,128.754044 224.086517,127.097221 
	C220.512894,117.675125 217.066345,108.588036 213.521896,99.242821 
	C209.473602,100.765877 205.792984,102.150597 201.891144,103.618553 
	C204.131454,109.768227 206.259247,115.609070 208.707352,122.329178 
	C201.547867,118.294975 195.405319,114.754562 189.171387,111.383133 
	C187.805405,110.644386 185.908859,109.827187 184.609985,110.218597 
	C180.386932,111.491203 176.327667,113.307426 172.047928,114.975769 
	C175.676697,124.506134 179.122467,133.555832 182.646057,142.809952 
	C186.851151,141.208008 190.484680,139.823807 194.243576,138.391846 
	C192.205826,132.734100 190.355011,127.595352 189.056396,121.800720 
	C189.221985,121.567780 189.387573,121.334839 190.265991,121.210693 
M271.561646,288.061981 
	C287.002441,272.997498 298.937286,255.504822 307.089294,235.563705 
	C314.156281,218.276703 318.280701,200.395660 314.955994,181.576614 
	C313.151337,171.361465 309.291351,162.226440 300.481659,155.729004 
	C297.758698,153.720703 296.379608,154.181244 294.229156,156.244644 
	C277.755219,172.051819 265.334229,190.658371 257.067230,211.817734 
	C252.001633,224.783081 248.715454,238.434204 243.913132,251.514084 
	C236.967438,270.431763 225.884186,286.687988 210.077652,299.396057 
	C204.050674,304.241638 197.544022,308.490601 190.456940,313.585938 
	C193.255234,314.905151 195.494904,316.190826 197.888123,317.047607 
	C206.168549,320.012024 214.641495,319.474152 222.933792,317.427368 
	C241.884247,312.749817 257.457977,302.253418 271.561646,288.061981 
M171.954193,278.293182 
	C172.694427,289.703827 175.858749,300.125763 184.036255,308.595886 
	C186.224884,310.862793 187.830048,311.393768 190.673798,309.077087 
	C214.424759,289.728241 230.318329,265.231506 237.916183,235.693710 
	C245.237442,207.231201 258.327576,182.426346 280.628296,162.931458 
	C284.971771,159.134460 289.748047,155.832504 295.619110,151.303726 
	C289.700562,150.059921 284.836334,148.400558 279.892853,148.115494 
	C263.553772,147.173340 249.423477,153.638443 236.113632,162.288818 
	C219.687744,172.964432 206.855682,187.081802 195.980499,203.305573 
	C180.915634,225.779602 170.987961,249.746429 171.954193,278.293182 
M112.980492,275.248596 
	C113.533531,270.303436 108.821243,264.301605 115.920189,260.620270 
	C116.253143,260.447601 116.169495,259.397064 116.212357,258.750885 
	C116.707497,251.285339 117.189606,243.818939 117.706192,235.875809 
	C115.977180,235.382507 113.345856,234.631790 110.774666,233.898224 
	C110.933075,232.736542 110.976982,232.066269 111.120323,231.417984 
	C112.348969,225.861282 113.009308,219.822464 121.091759,220.338150 
	C121.701393,220.377029 122.766815,219.284210 122.976173,218.536972 
	C123.848473,215.423630 124.474182,212.241180 125.406418,208.131516 
	C120.917961,208.872452 117.325676,209.465469 113.443008,210.106400 
	C112.206497,206.026978 108.835381,203.839844 103.948494,203.910507 
	C98.957268,203.982681 96.319519,207.371323 95.046043,211.420273 
	C91.974464,221.186249 89.407097,231.110825 86.563454,241.231033 
	C96.214088,243.577133 105.100487,245.737457 114.813446,248.098709 
	C105.881096,255.104248 97.761581,261.435059 89.689140,267.825348 
	C87.160103,269.827362 86.841805,280.308716 89.549301,281.764557 
	C99.437302,287.081390 109.509064,292.056519 120.009583,297.414459 
	C119.640930,293.834229 119.458115,291.009613 119.017174,288.225922 
	C118.801697,286.865631 118.364166,284.631165 117.584602,284.419098 
	C112.993202,283.170074 113.168922,279.627960 112.980492,275.248596 
M290.971710,100.569908 
	C287.261658,109.536842 283.551575,118.503784 279.749176,127.693909 
	C283.877045,129.343018 287.525757,130.800705 291.383362,132.341858 
	C293.863098,126.414642 296.218597,120.784447 299.032104,114.059410 
	C300.615906,118.775276 302.298279,122.106041 302.803650,125.606720 
	C304.272369,135.780548 309.797516,141.820145 319.828796,143.812958 
	C320.128571,143.872498 320.450562,143.820480 321.140900,143.820480 
	C324.733734,134.880905 328.359772,125.858643 332.110840,116.525345 
	C328.131775,114.940857 324.378693,113.446350 320.475098,111.891914 
	C319.190765,115.060249 318.092407,117.814865 316.958405,120.554733 
	C315.802399,123.347771 314.611328,126.126282 312.951813,130.057083 
	C311.411102,125.565475 309.772736,122.421074 309.300262,119.110291 
	C307.794556,108.559540 301.963989,102.373306 290.971710,100.569908 
M157.734772,162.426254 
	C162.997650,157.967331 168.927353,154.075577 173.337021,148.890976 
	C177.802292,143.640961 176.789429,137.220795 172.488663,131.935928 
	C168.000748,126.421082 161.967712,124.332809 155.620804,127.599541 
	C150.412430,130.280258 145.497437,134.002380 141.348801,138.157837 
	C135.445343,144.070999 134.994446,150.757004 138.862183,156.748352 
	C143.097427,163.309006 148.687881,165.169678 157.734772,162.426254 
M118.129204,203.682587 
	C119.624130,204.064133 121.173622,204.916748 122.605141,204.750916 
	C131.994278,203.663345 142.196899,185.991196 138.604706,177.264511 
	C136.057709,171.077011 130.920090,169.890976 125.979553,174.381195 
	C124.397858,175.818710 122.896645,177.344788 121.358612,178.830353 
	C121.052055,178.578476 120.745491,178.326584 120.438934,178.074707 
	C122.257515,174.695480 124.076103,171.316269 126.515900,166.782745 
	C122.962944,167.308609 120.290565,167.220795 118.018562,168.131653 
	C111.370293,170.797073 103.249573,184.104294 104.600021,191.092270 
	C105.213181,194.265076 107.619553,198.148468 110.318779,199.499863 
	C112.207397,200.445404 116.020821,197.755463 118.872078,196.463058 
	C119.961395,195.969284 120.765152,194.845520 121.699043,194.008850 
	C122.064598,194.316772 122.430145,194.624695 122.795700,194.932617 
	C121.311867,197.602814 119.828033,200.273010 118.129204,203.682587 
M395.758240,300.893311 
	C390.905975,298.907562 386.053711,296.921844 380.955322,294.835419 
	C376.359192,306.096313 371.933868,316.938751 367.352509,328.163391 
	C369.852264,329.168518 371.906769,329.994598 374.167206,330.903473 
	C377.248810,323.493347 380.163055,316.485687 383.179047,309.233337 
	C384.728485,310.053864 385.939331,310.695068 387.174622,311.349213 
	C384.870239,317.097382 382.732758,322.429199 380.451538,328.119629 
	C382.506287,328.888031 384.104034,329.485504 385.764404,330.106384 
	C388.162292,324.342072 390.375092,319.022705 392.721100,313.383148 
	C394.299835,314.026154 395.587006,314.550385 396.949158,315.105164 
	C394.187195,321.904938 391.580597,328.322235 388.799377,335.169464 
	C391.241791,336.135956 393.413300,336.995239 395.684540,337.894012 
	C400.093689,327.107300 404.282043,316.860779 408.621796,306.243896 
	C404.371185,304.441406 400.434723,302.772125 395.758240,300.893311 
M365.835999,148.493179 
	C366.659393,147.345947 367.482788,146.198700 368.382446,144.945175 
	C359.539459,137.588379 351.016510,130.497818 342.186554,123.151863 
	C335.773193,130.851181 329.535583,138.339569 323.058746,146.115112 
	C332.403473,153.904373 341.430481,161.428818 350.686981,169.144531 
	C352.270325,167.271866 353.754395,165.516632 355.450317,163.510834 
	C349.439758,158.460800 343.609680,153.562408 337.558167,148.477936 
	C338.595001,147.268295 339.509460,146.201385 340.495514,145.050980 
	C345.284760,148.983490 349.856323,152.737259 354.556702,156.596802 
	C355.889008,155.009949 356.933258,153.766205 358.211731,152.243454 
	C353.543396,148.330322 348.991150,144.514496 344.188354,140.488663 
	C345.359497,139.187469 346.281097,138.163544 347.281433,137.052155 
	C352.167603,141.121445 356.691162,145.039383 361.420410,148.690964 
	C362.290161,149.362503 363.993866,148.954010 365.835999,148.493179 
M369.682495,168.962631 
	C364.232513,172.102997 361.432037,176.858459 362.329346,183.067291 
	C363.481232,191.037781 367.310974,197.867905 373.168121,203.369186 
	C376.783234,206.764694 381.078583,208.558594 386.454010,206.574539 
	C383.198334,201.793533 381.883026,196.281860 376.017944,193.529892 
	C372.703064,191.974533 370.962372,187.732742 372.743774,183.523911 
	C374.317169,179.806503 377.431335,178.231659 381.254852,179.077255 
	C385.513397,180.019043 388.190552,183.589951 387.793152,187.428314 
	C387.131989,193.814438 391.065643,197.648285 393.728363,202.713867 
	C397.944489,198.608154 399.202515,193.834427 397.374817,189.152649 
	C395.114258,183.362198 392.300354,177.566971 388.600525,172.614212 
	C383.799408,166.187271 377.980499,165.414368 369.682495,168.962631 
M99.914551,304.644531 
	C97.652000,305.207581 95.389442,305.770660 92.656662,306.450714 
	C97.493210,317.941589 102.076912,328.831757 106.744652,339.921570 
	C109.338615,338.784912 111.365128,337.896942 113.451866,336.982574 
	C111.855255,333.040222 110.515106,329.731140 109.124664,326.297852 
	C116.095413,323.323944 122.771881,320.475586 129.691467,317.523529 
	C128.023941,313.540649 126.501656,309.904724 124.881157,306.034180 
	C117.883240,308.936920 111.203377,311.707733 104.255447,314.589752 
	C102.843758,311.386841 101.512161,308.365631 99.914551,304.644531 
M238.009735,98.423073 
	C233.979599,97.860130 229.949463,97.297188 225.380981,96.659050 
	C226.003510,107.704094 226.548904,117.380814 227.109344,127.324646 
	C239.025513,126.657043 250.379501,126.020935 261.998383,125.369987 
	C261.796753,122.591835 261.644440,120.492668 261.465088,118.021507 
	C253.897827,118.406006 246.690887,118.772202 239.258347,119.149857 
	C238.834702,112.222092 238.440872,105.781693 238.009735,98.423073 
M278.872925,98.811111 
	C275.296661,98.266357 271.720428,97.721596 267.797791,97.124077 
	C266.370544,107.115723 264.992676,116.761597 263.569733,126.723198 
	C267.909149,127.324112 271.778320,127.859917 276.218872,128.474838 
	C277.409332,118.416580 278.553101,108.752907 278.872925,98.811111 
M295.498962,353.587830 
	C291.514343,353.728729 288.717743,355.178955 288.925781,359.748444 
	C289.106323,363.715088 291.596832,365.104706 295.198242,365.186707 
	C298.820587,365.269104 301.931458,364.512573 302.355469,360.178833 
	C302.783173,355.807098 300.453430,353.789246 295.498962,353.587830 
M260.168518,355.809845 
	C258.400818,358.943787 258.223938,362.529785 261.590637,363.921265 
	C264.215088,365.005981 267.981537,364.551666 270.745941,363.491608 
	C271.906830,363.046448 272.648926,359.026001 272.078949,357.068359 
	C270.899902,353.018738 267.097931,353.438782 263.775726,353.876129 
	C262.702332,354.017456 261.708984,354.766632 260.168518,355.809845 
M202.729187,356.708710 
	C208.184357,356.687378 208.184357,356.687378 208.749573,353.993286 
	C204.634430,353.993286 200.549072,353.993286 196.423553,353.993286 
	C196.423553,357.732056 196.423553,361.271698 196.423553,364.671539 
	C201.103867,364.671539 205.456467,364.671539 209.809067,364.671539 
	C209.462234,363.169128 208.776367,362.331451 207.951141,362.158447 
	C206.680939,361.892090 205.311050,362.143402 203.991287,362.056396 
	C203.090927,361.997040 202.203934,361.735260 201.310959,361.563995 
	C201.331741,361.311157 201.352509,361.058319 201.373291,360.805450 
	C203.582550,360.584808 205.791794,360.364136 208.001053,360.143463 
	C207.978424,359.581451 207.955780,359.019470 207.933151,358.457458 
	C206.276535,358.355042 204.606720,358.339600 202.972198,358.091583 
	C202.541611,358.026215 202.220093,357.241913 202.729187,356.708710 
M212.460800,359.944519 
	C211.952606,360.684784 211.444427,361.425079 210.942017,362.156921 
	C214.852402,365.607666 221.297226,366.476501 223.355255,363.430786 
	C224.215042,362.158386 223.314316,359.696381 223.167526,356.884094 
	C222.794846,357.187012 223.443253,356.660004 224.252029,356.002655 
	C220.865219,352.772705 217.147873,353.112915 213.779160,354.455750 
	C212.681076,354.893463 212.529663,357.706055 212.460800,359.944519 
M247.650604,353.997162 
	C246.417084,354.780151 245.183563,355.563141 243.397903,356.696625 
	C245.220108,357.473114 246.494751,358.016266 247.083206,358.267029 
	C246.019455,360.163025 244.887802,362.180054 243.519562,364.618805 
	C248.954819,364.618805 253.262558,364.618805 257.570312,364.618805 
	C257.685577,364.158966 257.800873,363.699158 257.916138,363.239319 
	C256.136230,362.670135 254.356293,362.100952 253.484436,361.822144 
	C254.761963,360.591187 256.355927,359.055328 257.949890,357.519470 
	C255.749542,356.206055 253.611710,354.763336 251.313507,353.652405 
	C250.552383,353.284454 249.378387,353.770599 247.650604,353.997162 
M282.706146,361.188019 
	C285.567200,360.504791 289.171326,359.599091 286.456848,355.933777 
	C285.207153,354.246399 281.459717,353.895050 278.850739,353.910736 
	C277.144745,353.920990 275.449249,355.677521 273.749054,356.651855 
	C273.969238,357.044495 274.189392,357.437164 274.409576,357.829834 
	C275.806396,357.970764 277.203217,358.111725 277.645355,358.156342 
	C276.267639,359.858398 274.673218,361.828125 272.285583,364.777863 
	C278.417694,364.777863 282.663513,364.777863 286.909332,364.777863 
	C287.037964,364.213562 287.166595,363.649261 287.295227,363.084961 
	C285.692932,362.687958 284.090607,362.290985 282.706146,361.188019 
M236.534454,353.826385 
	C232.691986,353.826385 228.849533,353.826385 225.007065,353.826385 
	C224.902466,354.387878 224.797852,354.949341 224.693237,355.510834 
	C226.405655,356.255127 228.118073,356.999451 230.223022,357.914368 
	C230.223022,360.030334 230.223022,362.447876 230.223022,365.144257 
	C232.020645,364.961090 233.407272,364.819794 235.057098,364.651672 
	C235.057098,361.873352 235.057098,359.443329 235.057098,357.910950 
	C236.821182,356.632935 237.968811,355.801514 239.116455,354.970093 
	C238.511993,354.589355 237.907516,354.208618 236.534454,353.826385 
z"/>
<path fill="#4E2B1D" opacity="1.000000" stroke="none" 
	d="
M271.310760,288.311401 
	C257.457977,302.253418 241.884247,312.749817 222.933792,317.427368 
	C214.641495,319.474152 206.168549,320.012024 197.888123,317.047607 
	C195.494904,316.190826 193.255234,314.905151 190.456940,313.585938 
	C197.544022,308.490601 204.050674,304.241638 210.077652,299.396057 
	C225.884186,286.687988 236.967438,270.431763 243.913132,251.514084 
	C248.715454,238.434204 252.001633,224.783081 257.067230,211.817734 
	C265.334229,190.658371 277.755219,172.051819 294.229156,156.244644 
	C296.379608,154.181244 297.758698,153.720703 300.481659,155.729004 
	C309.291351,162.226440 313.151337,171.361465 314.955994,181.576614 
	C318.280701,200.395660 314.156281,218.276703 307.089294,235.563705 
	C298.937286,255.504822 287.002441,272.997498 271.310760,288.311401 
M312.010803,193.599426 
	C311.857544,184.007355 310.428925,178.469620 308.172485,176.949020 
	C308.172485,189.582535 308.172485,202.586426 308.172485,216.970734 
	C311.518555,209.013504 312.166687,201.864090 312.010803,193.599426 
z"/>
<path fill="#4E2B1D" opacity="1.000000" stroke="none" 
	d="
M171.952728,277.816162 
	C170.987961,249.746429 180.915634,225.779602 195.980499,203.305573 
	C206.855682,187.081802 219.687744,172.964432 236.113632,162.288818 
	C249.423477,153.638443 263.553772,147.173340 279.892853,148.115494 
	C284.836334,148.400558 289.700562,150.059921 295.619110,151.303726 
	C289.748047,155.832504 284.971771,159.134460 280.628296,162.931458 
	C258.327576,182.426346 245.237442,207.231201 237.916183,235.693710 
	C230.318329,265.231506 214.424759,289.728241 190.673798,309.077087 
	C187.830048,311.393768 186.224884,310.862793 184.036255,308.595886 
	C175.858749,300.125763 172.694427,289.703827 171.952728,277.816162 
M210.861877,285.207642 
	C218.166367,276.374481 223.895599,266.648193 227.368759,255.636932 
	C221.072769,265.860443 214.776779,276.083954 207.729279,287.527771 
	C209.466324,286.408325 209.975525,286.080170 210.861877,285.207642 
z"/>
<path fill="#F9F9F9" opacity="1.000000" stroke="none" 
	d="
M113.002266,275.689697 
	C113.168922,279.627960 112.993202,283.170074 117.584602,284.419098 
	C118.364166,284.631165 118.801697,286.865631 119.017174,288.225922 
	C119.458115,291.009613 119.640930,293.834229 120.009583,297.414459 
	C109.509064,292.056519 99.437302,287.081390 89.549301,281.764557 
	C86.841805,280.308716 87.160103,269.827362 89.689140,267.825348 
	C97.761581,261.435059 105.881096,255.104248 114.813446,248.098709 
	C105.100487,245.737457 96.214088,243.577133 86.563454,241.231033 
	C89.407097,231.110825 91.974464,221.186249 95.046043,211.420273 
	C96.319519,207.371323 98.957268,203.982681 103.948494,203.910507 
	C108.835381,203.839844 112.206497,206.026978 113.443008,210.106400 
	C117.325676,209.465469 120.917961,208.872452 125.406418,208.131516 
	C124.474182,212.241180 123.848473,215.423630 122.976173,218.536972 
	C122.766815,219.284210 121.701393,220.377029 121.091759,220.338150 
	C113.009308,219.822464 112.348969,225.861282 111.120323,231.417984 
	C110.976982,232.066269 110.933075,232.736542 110.774666,233.898224 
	C113.345856,234.631790 115.977180,235.382507 117.706192,235.875809 
	C117.189606,243.818939 116.707497,251.285339 116.212357,258.750885 
	C116.169495,259.397064 116.253143,260.447601 115.920189,260.620270 
	C108.821243,264.301605 113.533531,270.303436 113.002266,275.689697 
M104.992661,225.487366 
	C105.280663,224.032822 106.003197,222.495926 105.747009,221.144531 
	C105.424522,219.443390 104.302010,217.893875 103.524689,216.278961 
	C102.319603,217.436432 100.549767,218.382294 100.021126,219.793213 
	C98.720718,223.263870 97.991188,226.948456 96.946632,230.867523 
	C99.358513,231.361877 101.326668,231.765274 103.362724,232.182602 
	C103.970825,229.803009 104.416351,228.059631 104.992661,225.487366 
M103.167503,277.818970 
	C103.962982,278.019958 104.758469,278.220947 105.922737,278.515137 
	C105.530891,275.239410 105.171387,272.234100 104.746391,268.681335 
	C101.760780,270.795197 99.290916,272.543854 96.362862,274.616943 
	C98.859192,275.756500 100.663803,276.580261 103.167503,277.818970 
z"/>
<path fill="#F9F9F9" opacity="1.000000" stroke="none" 
	d="
M188.504181,122.456604 
	C190.355011,127.595352 192.205826,132.734100 194.243576,138.391846 
	C190.484680,139.823807 186.851151,141.208008 182.646057,142.809952 
	C179.122467,133.555832 175.676697,124.506134 172.047928,114.975769 
	C176.327667,113.307426 180.386932,111.491203 184.609985,110.218597 
	C185.908859,109.827187 187.805405,110.644386 189.171387,111.383133 
	C195.405319,114.754562 201.547867,118.294975 208.707352,122.329178 
	C206.259247,115.609070 204.131454,109.768227 201.891144,103.618553 
	C205.792984,102.150597 209.473602,100.765877 213.521896,99.242821 
	C217.066345,108.588036 220.512894,117.675125 224.086517,127.097221 
	C219.806870,128.754044 215.879425,130.501892 211.794891,131.725159 
	C210.470444,132.121796 208.563522,131.462982 207.216492,130.740097 
	C201.506195,127.675690 195.906250,124.405609 189.715424,120.949524 
	C188.785187,120.679047 188.405518,120.669739 188.025848,120.660423 
	C188.185287,121.259155 188.344742,121.857880 188.504181,122.456604 
z"/>
<path fill="#F9F9F9" opacity="1.000000" stroke="none" 
	d="
M291.303253,100.404953 
	C301.963989,102.373306 307.794556,108.559540 309.300262,119.110291 
	C309.772736,122.421074 311.411102,125.565475 312.951813,130.057083 
	C314.611328,126.126282 315.802399,123.347771 316.958405,120.554733 
	C318.092407,117.814865 319.190765,115.060249 320.475098,111.891914 
	C324.378693,113.446350 328.131775,114.940857 332.110840,116.525345 
	C328.359772,125.858643 324.733734,134.880905 321.140900,143.820480 
	C320.450562,143.820480 320.128571,143.872498 319.828796,143.812958 
	C309.797516,141.820145 304.272369,135.780548 302.803650,125.606720 
	C302.298279,122.106041 300.615906,118.775276 299.032104,114.059410 
	C296.218597,120.784447 293.863098,126.414642 291.383362,132.341858 
	C287.525757,130.800705 283.877045,129.343018 279.749176,127.693909 
	C283.551575,118.503784 287.261658,109.536842 291.303253,100.404953 
z"/>
<path fill="#F9F9F9" opacity="1.000000" stroke="none" 
	d="
M157.386688,162.612122 
	C148.687881,165.169678 143.097427,163.309006 138.862183,156.748352 
	C134.994446,150.757004 135.445343,144.070999 141.348801,138.157837 
	C145.497437,134.002380 150.412430,130.280258 155.620804,127.599541 
	C161.967712,124.332809 168.000748,126.421082 172.488663,131.935928 
	C176.789429,137.220795 177.802292,143.640961 173.337021,148.890976 
	C168.927353,154.075577 162.997650,157.967331 157.386688,162.612122 
M159.255203,152.084991 
	C163.121323,149.666428 165.711716,146.507690 163.778076,141.752380 
	C162.417435,138.406235 159.643677,136.525009 155.818985,137.082382 
	C151.144943,137.763504 147.206985,142.986542 148.090759,147.140747 
	C149.067535,151.732178 152.898972,153.683716 159.255203,152.084991 
z"/>
<path fill="#F7F7F7" opacity="1.000000" stroke="none" 
	d="
M118.236710,203.312897 
	C119.828033,200.273010 121.311867,197.602814 122.795700,194.932617 
	C122.430145,194.624695 122.064598,194.316772 121.699043,194.008850 
	C120.765152,194.845520 119.961395,195.969284 118.872078,196.463058 
	C116.020821,197.755463 112.207397,200.445404 110.318779,199.499863 
	C107.619553,198.148468 105.213181,194.265076 104.600021,191.092270 
	C103.249573,184.104294 111.370293,170.797073 118.018562,168.131653 
	C120.290565,167.220795 122.962944,167.308609 126.515900,166.782745 
	C124.076103,171.316269 122.257515,174.695480 120.438934,178.074707 
	C120.745491,178.326584 121.052055,178.578476 121.358612,178.830353 
	C122.896645,177.344788 124.397858,175.818710 125.979553,174.381195 
	C130.920090,169.890976 136.057709,171.077011 138.604706,177.264511 
	C142.196899,185.991196 131.994278,203.663345 122.605141,204.750916 
	C121.173622,204.916748 119.624130,204.064133 118.236710,203.312897 
M125.257233,192.433426 
	C128.673462,190.883163 129.575272,188.294724 127.772369,184.397064 
	C126.224037,186.740112 124.675697,189.083145 122.567711,191.928925 
	C122.409851,192.746368 122.251991,193.563797 122.094131,194.381241 
	C122.908089,193.772385 123.722046,193.163513 125.257233,192.433426 
M119.790352,181.971512 
	C120.322166,180.931717 120.853981,179.891922 121.624229,178.385941 
	C115.066986,180.875168 114.025749,182.487961 115.780533,187.589905 
	C117.095650,185.721588 118.193588,184.161819 119.790352,181.971512 
z"/>
<path fill="#F7F7F7" opacity="1.000000" stroke="none" 
	d="
M396.128235,300.998077 
	C400.434723,302.772125 404.371185,304.441406 408.621796,306.243896 
	C404.282043,316.860779 400.093689,327.107300 395.684540,337.894012 
	C393.413300,336.995239 391.241791,336.135956 388.799377,335.169464 
	C391.580597,328.322235 394.187195,321.904938 396.949158,315.105164 
	C395.587006,314.550385 394.299835,314.026154 392.721100,313.383148 
	C390.375092,319.022705 388.162292,324.342072 385.764404,330.106384 
	C384.104034,329.485504 382.506287,328.888031 380.451538,328.119629 
	C382.732758,322.429199 384.870239,317.097382 387.174622,311.349213 
	C385.939331,310.695068 384.728485,310.053864 383.179047,309.233337 
	C380.163055,316.485687 377.248810,323.493347 374.167206,330.903473 
	C371.906769,329.994598 369.852264,329.168518 367.352509,328.163391 
	C371.933868,316.938751 376.359192,306.096313 380.955322,294.835419 
	C386.053711,296.921844 390.905975,298.907562 396.128235,300.998077 
z"/>
<path fill="#F8F8F8" opacity="1.000000" stroke="none" 
	d="
M365.574310,148.768616 
	C363.993866,148.954010 362.290161,149.362503 361.420410,148.690964 
	C356.691162,145.039383 352.167603,141.121445 347.281433,137.052155 
	C346.281097,138.163544 345.359497,139.187469 344.188354,140.488663 
	C348.991150,144.514496 353.543396,148.330322 358.211731,152.243454 
	C356.933258,153.766205 355.889008,155.009949 354.556702,156.596802 
	C349.856323,152.737259 345.284760,148.983490 340.495514,145.050980 
	C339.509460,146.201385 338.595001,147.268295 337.558167,148.477936 
	C343.609680,153.562408 349.439758,158.460800 355.450317,163.510834 
	C353.754395,165.516632 352.270325,167.271866 350.686981,169.144531 
	C341.430481,161.428818 332.403473,153.904373 323.058746,146.115112 
	C329.535583,138.339569 335.773193,130.851181 342.186554,123.151863 
	C351.016510,130.497818 359.539459,137.588379 368.382446,144.945175 
	C367.482788,146.198700 366.659393,147.345947 365.574310,148.768616 
z"/>
<path fill="#F8F8F8" opacity="1.000000" stroke="none" 
	d="
M370.025513,168.787231 
	C377.980499,165.414368 383.799408,166.187271 388.600525,172.614212 
	C392.300354,177.566971 395.114258,183.362198 397.374817,189.152649 
	C399.202515,193.834427 397.944489,198.608154 393.728363,202.713867 
	C391.065643,197.648285 387.131989,193.814438 387.793152,187.428314 
	C388.190552,183.589951 385.513397,180.019043 381.254852,179.077255 
	C377.431335,178.231659 374.317169,179.806503 372.743774,183.523911 
	C370.962372,187.732742 372.703064,191.974533 376.017944,193.529892 
	C381.883026,196.281860 383.198334,201.793533 386.454010,206.574539 
	C381.078583,208.558594 376.783234,206.764694 373.168121,203.369186 
	C367.310974,197.867905 363.481232,191.037781 362.329346,183.067291 
	C361.432037,176.858459 364.232513,172.102997 370.025513,168.787231 
z"/>
<path fill="#F8F8F8" opacity="1.000000" stroke="none" 
	d="
M386.396820,257.995544 
	C385.938843,255.565781 385.108521,253.131439 385.138397,250.707687 
	C385.163177,248.697281 386.146698,246.680954 386.813019,244.703491 
	C387.157318,243.681595 388.260284,242.656174 388.121796,241.773285 
	C387.299469,236.530411 386.232971,231.325027 385.192139,226.118332 
	C385.070679,225.510635 384.692017,224.550995 384.282074,224.464035 
	C376.409058,222.793808 379.512482,215.899750 376.858856,210.161057 
	C388.527283,214.803955 398.979004,218.764023 409.238739,223.170990 
	C412.164154,224.427597 412.577087,234.785492 410.163910,237.093903 
	C402.956696,243.988205 395.703278,250.834152 387.912872,257.833832 
	C387.037445,257.975555 386.717102,257.984528 386.396820,257.995544 
M401.294952,230.125473 
	C398.744507,229.332474 396.194092,228.539474 393.050354,227.562012 
	C393.859619,231.286011 394.478668,234.134842 395.349121,238.140396 
	C398.086548,234.977936 400.029877,232.732864 401.294952,230.125473 
z"/>
<path fill="#F6F6F6" opacity="1.000000" stroke="none" 
	d="
M386.298218,258.393677 
	C386.717102,257.984528 387.037445,257.975555 387.598083,257.961548 
	C389.508636,258.617188 391.129517,259.644806 392.857910,259.879120 
	C400.077911,260.857880 407.330200,261.598358 415.045288,262.480469 
	C413.710693,273.941620 412.412994,285.086090 411.082977,296.507996 
	C408.536163,296.256439 406.432800,296.048676 403.794220,295.788025 
	C404.581421,288.607849 405.354614,281.555206 406.151947,274.282440 
	C404.689850,274.101227 403.428497,273.944885 401.680542,273.728210 
	C400.912445,279.861176 400.179474,285.713562 399.404968,291.897644 
	C397.463806,291.618774 395.864746,291.389069 393.834625,291.097412 
	C394.491608,285.137970 395.124786,279.394897 395.817993,273.106873 
	C392.021088,272.561493 388.175385,272.009125 383.547882,271.344452 
	C384.468597,266.986023 385.334076,262.888947 386.298218,258.393677 
z"/>
<path fill="#F8F8F8" opacity="1.000000" stroke="none" 
	d="
M100.047562,304.994476 
	C101.512161,308.365631 102.843758,311.386841 104.255447,314.589752 
	C111.203377,311.707733 117.883240,308.936920 124.881157,306.034180 
	C126.501656,309.904724 128.023941,313.540649 129.691467,317.523529 
	C122.771881,320.475586 116.095413,323.323944 109.124664,326.297852 
	C110.515106,329.731140 111.855255,333.040222 113.451866,336.982574 
	C111.365128,337.896942 109.338615,338.784912 106.744652,339.921570 
	C102.076912,328.831757 97.493210,317.941589 92.656662,306.450714 
	C95.389442,305.770660 97.652000,305.207581 100.047562,304.994476 
z"/>
<path fill="#F7F7F7" opacity="1.000000" stroke="none" 
	d="
M238.028381,98.882187 
	C238.440872,105.781693 238.834702,112.222092 239.258347,119.149857 
	C246.690887,118.772202 253.897827,118.406006 261.465088,118.021507 
	C261.644440,120.492668 261.796753,122.591835 261.998383,125.369987 
	C250.379501,126.020935 239.025513,126.657043 227.109344,127.324646 
	C226.548904,117.380814 226.003510,107.704094 225.380981,96.659050 
	C229.949463,97.297188 233.979599,97.860130 238.028381,98.882187 
z"/>
<path fill="#F8F8F8" opacity="1.000000" stroke="none" 
	d="
M279.284912,98.950172 
	C278.553101,108.752907 277.409332,118.416580 276.218872,128.474838 
	C271.778320,127.859917 267.909149,127.324112 263.569733,126.723198 
	C264.992676,116.761597 266.370544,107.115723 267.797791,97.124077 
	C271.720428,97.721596 275.296661,98.266357 279.284912,98.950172 
z"/>
<path fill="#EAEAEA" opacity="1.000000" stroke="none" 
	d="
M295.874512,353.604126 
	C300.453430,353.789246 302.783173,355.807098 302.355469,360.178833 
	C301.931458,364.512573 298.820587,365.269104 295.198242,365.186707 
	C291.596832,365.104706 289.106323,363.715088 288.925781,359.748444 
	C288.717743,355.178955 291.514343,353.728729 295.874512,353.604126 
z"/>
<path fill="#EDEDED" opacity="1.000000" stroke="none" 
	d="
M260.423767,355.523773 
	C261.708984,354.766632 262.702332,354.017456 263.775726,353.876129 
	C267.097931,353.438782 270.899902,353.018738 272.078949,357.068359 
	C272.648926,359.026001 271.906830,363.046448 270.745941,363.491608 
	C267.981537,364.551666 264.215088,365.005981 261.590637,363.921265 
	C258.223938,362.529785 258.400818,358.943787 260.423767,355.523773 
z"/>
<path fill="#E7E7E7" opacity="1.000000" stroke="none" 
	d="
M202.288849,356.748230 
	C202.220093,357.241913 202.541611,358.026215 202.972198,358.091583 
	C204.606720,358.339600 206.276535,358.355042 207.933151,358.457458 
	C207.955780,359.019470 207.978424,359.581451 208.001053,360.143463 
	C205.791794,360.364136 203.582550,360.584808 201.373291,360.805450 
	C201.352509,361.058319 201.331741,361.311157 201.310959,361.563995 
	C202.203934,361.735260 203.090927,361.997040 203.991287,362.056396 
	C205.311050,362.143402 206.680939,361.892090 207.951141,362.158447 
	C208.776367,362.331451 209.462234,363.169128 209.809067,364.671539 
	C205.456467,364.671539 201.103867,364.671539 196.423553,364.671539 
	C196.423553,361.271698 196.423553,357.732056 196.423553,353.993286 
	C200.549072,353.993286 204.634430,353.993286 208.749573,353.993286 
	C208.184357,356.687378 208.184357,356.687378 202.288849,356.748230 
z"/>
<path fill="#EEEEEE" opacity="1.000000" stroke="none" 
	d="
M212.203049,359.688477 
	C212.529663,357.706055 212.681076,354.893463 213.779160,354.455750 
	C217.147873,353.112915 220.865219,352.772705 224.252029,356.002655 
	C223.443253,356.660004 222.794846,357.187012 223.167526,356.884094 
	C223.314316,359.696381 224.215042,362.158386 223.355255,363.430786 
	C221.297226,366.476501 214.852402,365.607666 210.942017,362.156921 
	C211.444427,361.425079 211.952606,360.684784 212.203049,359.688477 
z"/>
<path fill="#EDEDED" opacity="1.000000" stroke="none" 
	d="
M248.021881,353.931702 
	C249.378387,353.770599 250.552383,353.284454 251.313507,353.652405 
	C253.611710,354.763336 255.749542,356.206055 257.949890,357.519470 
	C256.355927,359.055328 254.761963,360.591187 253.484436,361.822144 
	C254.356293,362.100952 256.136230,362.670135 257.916138,363.239319 
	C257.800873,363.699158 257.685577,364.158966 257.570312,364.618805 
	C253.262558,364.618805 248.954819,364.618805 243.519562,364.618805 
	C244.887802,362.180054 246.019455,360.163025 247.083206,358.267029 
	C246.494751,358.016266 245.220108,357.473114 243.397903,356.696625 
	C245.183563,355.563141 246.417084,354.780151 248.021881,353.931702 
z"/>
<path fill="#F0F0F0" opacity="1.000000" stroke="none" 
	d="
M282.597229,361.541016 
	C284.090607,362.290985 285.692932,362.687958 287.295227,363.084961 
	C287.166595,363.649261 287.037964,364.213562 286.909332,364.777863 
	C282.663513,364.777863 278.417694,364.777863 272.285583,364.777863 
	C274.673218,361.828125 276.267639,359.858398 277.645355,358.156342 
	C277.203217,358.111725 275.806396,357.970764 274.409576,357.829834 
	C274.189392,357.437164 273.969238,357.044495 273.749054,356.651855 
	C275.449249,355.677521 277.144745,353.920990 278.850739,353.910736 
	C281.459717,353.895050 285.207153,354.246399 286.456848,355.933777 
	C289.171326,359.599091 285.567200,360.504791 282.597229,361.541016 
z"/>
<path fill="#F2F2F2" opacity="1.000000" stroke="none" 
	d="
M236.918747,353.827148 
	C237.907516,354.208618 238.511993,354.589355 239.116455,354.970093 
	C237.968811,355.801514 236.821182,356.632935 235.057098,357.910950 
	C235.057098,359.443329 235.057098,361.873352 235.057098,364.651672 
	C233.407272,364.819794 232.020645,364.961090 230.223022,365.144257 
	C230.223022,362.447876 230.223022,360.030334 230.223022,357.914368 
	C228.118073,356.999451 226.405655,356.255127 224.693237,355.510834 
	C224.797852,354.949341 224.902466,354.387878 225.007065,353.826385 
	C228.849533,353.826385 232.691986,353.826385 236.918747,353.827148 
z"/>
<path fill="#0A0503" opacity="1.000000" stroke="none" 
	d="
M312.014038,194.079254 
	C312.166687,201.864090 311.518555,209.013504 308.172485,216.970734 
	C308.172485,202.586426 308.172485,189.582535 308.172485,176.949020 
	C310.428925,178.469620 311.857544,184.007355 312.014038,194.079254 
z"/>
<path fill="#0C0604" opacity="1.000000" stroke="none" 
	d="
M210.673309,285.479828 
	C209.975525,286.080170 209.466324,286.408325 207.729279,287.527771 
	C214.776779,276.083954 221.072769,265.860443 227.368759,255.636932 
	C223.895599,266.648193 218.166367,276.374481 210.673309,285.479828 
z"/>
<path fill="#0F0F0F" opacity="1.000000" stroke="none" 
	d="
M104.927269,225.901794 
	C104.416351,228.059631 103.970825,229.803009 103.362724,232.182602 
	C101.326668,231.765274 99.358513,231.361877 96.946632,230.867523 
	C97.991188,226.948456 98.720718,223.263870 100.021126,219.793213 
	C100.549767,218.382294 102.319603,217.436432 103.524689,216.278961 
	C104.302010,217.893875 105.424522,219.443390 105.747009,221.144531 
	C106.003197,222.495926 105.280663,224.032822 104.927269,225.901794 
z"/>
<path fill="#141414" opacity="1.000000" stroke="none" 
	d="
M102.817963,277.611511 
	C100.663803,276.580261 98.859192,275.756500 96.362862,274.616943 
	C99.290916,272.543854 101.760780,270.795197 104.746391,268.681335 
	C105.171387,272.234100 105.530891,275.239410 105.922737,278.515137 
	C104.758469,278.220947 103.962982,278.019958 102.817963,277.611511 
z"/>
<path fill="#000000" opacity="1.000000" stroke="none" 
	d="
M188.780289,122.128662 
	C188.344742,121.857880 188.185287,121.259155 188.025848,120.660423 
	C188.405518,120.669739 188.785187,120.679047 189.359009,120.895134 
	C189.387573,121.334839 189.221985,121.567780 188.780289,122.128662 
z"/>
<path fill="#060606" opacity="1.000000" stroke="none" 
	d="
M158.907883,152.279266 
	C152.898972,153.683716 149.067535,151.732178 148.090759,147.140747 
	C147.206985,142.986542 151.144943,137.763504 155.818985,137.082382 
	C159.643677,136.525009 162.417435,138.406235 163.778076,141.752380 
	C165.711716,146.507690 163.121323,149.666428 158.907883,152.279266 
z"/>
<path fill="#000000" opacity="1.000000" stroke="none" 
	d="
M123.127357,191.426178 
	C124.675697,189.083145 126.224037,186.740112 127.772369,184.397064 
	C129.575272,188.294724 128.673462,190.883163 124.553391,192.200775 
	C123.608810,191.787491 123.368088,191.606842 123.127357,191.426178 
z"/>
<path fill="#000000" opacity="1.000000" stroke="none" 
	d="
M119.540939,182.286774 
	C118.193588,184.161819 117.095650,185.721588 115.780533,187.589905 
	C114.025749,182.487961 115.066986,180.875168 121.624229,178.385941 
	C120.853981,179.891922 120.322166,180.931717 119.540939,182.286774 
z"/>
<path fill="#000000" opacity="1.000000" stroke="none" 
	d="
M124.192772,192.261383 
	C123.722046,193.163513 122.908089,193.772385 122.094131,194.381241 
	C122.251991,193.563797 122.409851,192.746368 122.847534,191.677551 
	C123.368088,191.606842 123.608810,191.787491 124.192772,192.261383 
z"/>
<path fill="#141414" opacity="1.000000" stroke="none" 
	d="
M401.634094,230.306641 
	C400.029877,232.732864 398.086548,234.977936 395.349121,238.140396 
	C394.478668,234.134842 393.859619,231.286011 393.050354,227.562012 
	C396.194092,228.539474 398.744507,229.332474 401.634094,230.306641 
z"/>
</svg>